<svg width="127" height="24" viewBox="0 0 127 24" fill="none" xmlns="http://www.w3.org/2000/svg">
<path d="M71.9067 2.36641C71.9067 1.032 72.9748 0 74.3123 0C75.6162 0 76.6843 1.032 76.6843 2.36641C76.6843 3.70081 75.6162 4.73281 74.3123 4.73281C72.9796 4.73281 71.9067 3.70081 71.9067 2.36641ZM72.3109 23.5009L72.3109 6.70082L76.3186 6.70082L76.3186 23.5009L72.3109 23.5009Z" fill="#624AF7"/>
<path d="M27.5343 9.83515C28.9439 9.83515 30.267 10.3824 31.2678 11.376C32.2637 12.3696 32.8122 13.6944 32.8122 15.1008C32.8122 16.5072 32.2637 17.8272 31.2678 18.8256C30.2718 19.8192 28.9439 20.3664 27.5343 20.3664C26.1246 20.3664 24.8015 19.8192 23.8008 18.8256C22.8048 17.832 22.2564 16.5072 22.2564 15.1008C22.2564 13.6944 22.8048 12.3744 23.8008 11.376C24.7967 10.3824 26.1246 9.83515 27.5343 9.83515ZM27.5343 6.20154C22.6076 6.20154 18.6143 10.1855 18.6143 15.1008C18.6143 20.016 22.6076 24 27.5343 24C32.4609 24 36.4543 20.016 36.4543 15.1008C36.4543 10.1855 32.4609 6.20154 27.5343 6.20154Z" fill="#624AF7"/>
<path d="M80.2368 23.5009L80.2368 6.70081L84.2109 6.70081L84.2109 14.2464L90.2249 6.70081L94.7186 6.70081L87.954 14.9424L94.9832 23.5009L90.4414 23.5009L84.2061 15.8352L84.2061 23.5009L80.2368 23.5009Z" fill="#624AF7"/>
<path d="M109.045 6.70074L109.045 8.40474C107.78 7.10394 106.173 6.20154 104.032 6.20154C99.1051 6.20154 95.1118 10.1855 95.1118 15.1008C95.1118 20.016 99.1051 24 104.032 24C106.173 24 107.78 23.0976 109.045 21.7968L109.045 23.5008L113.058 23.5008L113.058 6.70074L109.045 6.70074ZM107.761 18.8208C106.765 19.8144 105.437 20.3616 104.027 20.3616C102.617 20.3616 101.294 19.8144 100.294 18.8208C99.2976 17.8272 98.7491 16.5024 98.7491 15.096C98.7491 13.6896 99.2976 12.3696 100.294 11.3712C101.289 10.3776 102.617 9.83035 104.027 9.83035C105.437 9.83035 106.76 10.3776 107.761 11.3712C108.756 12.3648 109.305 13.6896 109.305 15.096C109.31 16.5072 108.756 17.8272 107.761 18.8208Z" fill="#624AF7"/>
<path d="M116.97 23.5009L116.97 6.70081L120.944 6.70081L120.944 8.40481C122.387 6.97921 123.09 6.70081 125.957 6.70081C126.424 6.70081 126.501 6.70081 126.857 6.70081L126.857 10.5024C126.376 10.5024 126.092 10.5024 125.49 10.5024C122.719 10.5024 120.949 12.2352 120.949 15.0048L120.949 23.5057L116.97 23.5057V23.5009Z" fill="#624AF7"/>
<path d="M39.7314 23.5009L39.7314 6.70081L43.7055 6.70081L43.7055 8.40481C45.1489 6.97921 45.8513 6.70081 48.7188 6.70081C49.1807 6.70081 49.2625 6.70081 49.6185 6.70081L49.6185 10.5024C49.1374 10.5024 48.8535 10.5024 48.2521 10.5024C45.4809 10.5024 43.7103 12.2352 43.7103 15.0048L43.7103 23.5057L39.7314 23.5057V23.5009Z" fill="#624AF7"/>
<path d="M62.0166 6.36481C58.7739 6.36481 57.7779 7.54081 56.9023 8.40001L56.9023 6.69601L52.9282 6.69601L52.9282 23.4961L56.9023 23.4961L56.9023 13.8336C56.9023 11.5344 58.5381 9.93122 60.8138 9.93122C63.051 9.93122 64.3885 11.3664 64.3885 13.6656L64.3885 23.5009L68.3963 23.5009L68.3963 13.0992C68.3963 8.93281 66.0244 6.36481 62.0166 6.36481Z" fill="#624AF7"/>
<path d="M15.0158 6.20154L1.82345 6.20154C0.817907 6.20154 0 7.01274 0 8.01594C0 9.01915 0.817907 9.83515 1.82345 9.83515L15.0206 9.83515C16.0262 9.83515 16.8441 9.01915 16.8441 8.01594C16.8393 7.01274 16.0262 6.20154 15.0158 6.20154ZM13.1491 13.4688L6.38448 13.4688C5.37894 13.4688 4.56103 14.2848 4.56103 15.288C4.56103 16.2912 5.37894 17.1072 6.38448 17.1072L13.1491 17.1072C14.1546 17.1072 14.9725 16.2912 14.9725 15.288C14.9677 14.2848 14.1546 13.4688 13.1491 13.4688Z" fill="#624AF7"/>
</svg>
